<?xml version="1.0" standalone="no"?>
<!DOCTYPE svg PUBLIC "-//W3C//DTD SVG 1.1//EN" "http://www.w3.org/Graphics/SVG/1.1/DTD/svg11.dtd" >
<!--
2013-9-30: Created.
-->
<svg>
<metadata>
Created by iconfont
</metadata>
<defs>

<font id="iconfont" horiz-adv-x="1024" >
  <font-face
    font-family="iconfont"
    font-weight="500"
    font-stretch="normal"
    units-per-em="1024"
    ascent="896"
    descent="-128"
  />
    <missing-glyph />
    
    <glyph glyph-name="chenggong" unicode="&#58909;" d="M512 865.132c-265.298 0-481.131-215.849-481.131-481.131S246.703-97.13 512-97.13s481.131 215.849 481.131 481.131S777.297 865.132 512 865.132z m-44.417-707.277L241.364 377.249l56.948 47.235 130.717-99.582s149.184 170.466 331.809 285.245l21.798-26.991c0 0.001-207.759-183.957-315.054-425.3z"  horiz-adv-x="1024" />

    
    <glyph glyph-name="chenggong1" unicode="&#58903;" d="M453.307317 161.71707300000003c12.487805 0 24.97561 4.995122 34.965854 13.736586l295.960975 300.956097c16.234146 16.234146 16.234146 43.707317 0 59.941464a41.459512 41.459512 0 0 1-58.692683 0L455.804878 262.868293l-134.868293 137.365853a41.459512 41.459512 0 0 1-58.692683 0c-16.234146-16.234146-16.234146-43.707317 0-59.941463l162.341464-166.087805c7.492683-7.492683 17.482927-12.487805 28.721951-12.487805zM756.760976 10.614634000000024c-72.429268-48.702439-157.346341-74.926829-243.512196-74.926829-242.263415 0-437.073171 196.058537-437.07317 435.82439 0 86.165854 24.97561 169.834146 72.429268 241.014634 6.243902 9.990244 7.492683 21.229268 2.497561 32.468293-4.995122 9.990244-14.985366 17.482927-26.22439 17.482927-11.239024 1.24878-22.478049-4.995122-28.721951-14.985366C41.209756 566.321951 12.487805 470.165854 12.487805 371.512195c0-275.980488 223.531707-499.512195 499.512195-499.512195 99.902439 0 197.307317 29.970732 279.726829 86.165854 9.990244 6.243902 14.985366 17.482927 13.736586 28.721951-1.24878 11.239024-7.492683 21.229268-17.482927 26.22439-9.990244 4.995122-22.478049 3.746341-31.219512-2.497561zM512 871.02439c-106.146341 0-208.546341-33.717073-294.712195-96.156097-13.736585-9.990244-17.482927-29.970732-7.492683-44.956098 9.990244-13.736585 29.970732-17.482927 44.956098-7.492683 74.926829 54.946341 164.839024 83.668293 257.24878 83.668293 239.765854 0 435.82439-196.058537 435.82439-435.82439 0-92.409756-28.721951-182.321951-83.668292-257.248781-7.492683-8.741463-8.741463-21.229268-3.746342-31.219512 4.995122-9.990244 14.985366-17.482927 26.22439-18.731707 11.239024-1.24878 22.478049 3.746341 28.721952 13.736585 62.439024 84.917073 96.156098 188.565854 96.156097 294.712195C1011.512195 647.4926829999999 787.980488 871.02439 512 871.02439zM453.307317 186.692683c12.487805 0 24.97561 4.995122 34.965854 13.736585l295.960975 300.956098c16.234146 16.234146 16.234146 43.707317 0 59.941463a41.459512 41.459512 0 0 1-58.692683 0L455.804878 287.84390199999996l-134.868293 137.365854a41.459512 41.459512 0 0 1-58.692683 0c-16.234146-16.234146-16.234146-43.707317 0-59.941463l162.341464-166.087805c7.492683-7.492683 17.482927-12.487805 28.721951-12.487805zM756.760976 35.590243999999984c-72.429268-48.702439-157.346341-74.926829-243.512196-74.926829-242.263415 0-437.073171 196.058537-437.07317 435.82439 0 86.165854 24.97561 169.834146 72.429268 241.014634 6.243902 9.990244 7.492683 21.229268 2.497561 32.468293-4.995122 9.990244-14.985366 17.482927-26.22439 17.482927-11.239024 1.24878-22.478049-4.995122-28.721951-14.985366C41.209756 591.297561 12.487805 495.141463 12.487805 396.487805c0-275.980488 223.531707-499.512195 499.512195-499.512195 99.902439 0 197.307317 29.970732 279.726829 86.165853 9.990244 6.243902 14.985366 17.482927 13.736586 28.721952-1.24878 11.239024-7.492683 21.229268-17.482927 26.22439-9.990244 4.995122-22.478049 3.746341-31.219512-2.497561zM512 896c-106.146341 0-208.546341-33.717073-294.712195-96.156098-13.736585-9.990244-17.482927-29.970732-7.492683-44.956097 9.990244-13.736585 29.970732-17.482927 44.956098-7.492683 74.926829 54.946341 164.839024 83.668293 257.24878 83.668293 239.765854 0 435.82439-196.058537 435.82439-435.824391 0-92.409756-28.721951-182.321951-83.668292-257.24878-7.492683-8.741463-8.741463-21.229268-3.746342-31.219512 4.995122-9.990244 14.985366-17.482927 26.22439-18.731708 11.239024-1.24878 22.478049 3.746341 28.721952 13.736586 62.439024 84.917073 96.156098 188.565854 96.156097 294.712195C1011.512195 672.468293 787.980488 896 512 896z"  horiz-adv-x="1024" />

    
    <glyph glyph-name="tijiaochenggong" unicode="&#58886;" d="M874.994872 843.487179H720.738462L712.205128 797.538462h137.846154c21.661538 0 39.384615-17.723077 39.384615-39.384616v-592.738461H698.420513c-34.789744 0-59.076923-23.630769-59.076923-58.420513V-82.05128200000001H173.948718c-21.661538 0-39.384615 17.723077-39.384615 39.384615V758.1538459999999c0 21.661538 17.723077 39.384615 39.384615 39.384616h132.594872l-1.969231 45.948717H149.005128C115.528205 843.487179 88.615385 816.574359 88.615385 783.097436v-850.051282c0-33.476923 26.912821-60.389744 60.389743-60.389744h544.164103l242.215384 242.871795V783.097436c0 33.476923-26.912821 60.389744-60.389743 60.389743zM686.605128-68.92307700000003v190.358974H876.307692l-189.702564-190.358974zM282.25641 311.79487200000005h472.615385c12.471795 0 22.974359-10.502564 22.974359-22.974359s-10.502564-22.974359-22.974359-22.974359h-472.615385c-12.471795 0-22.974359 10.502564-22.974359 22.974359s10.502564 22.974359 22.974359 22.974359zM282.25641 160.820513h288.820513c12.471795 0 22.974359-10.502564 22.974359-22.974359s-10.502564-22.974359-22.974359-22.974359h-288.820513c-12.471795 0-22.974359 10.502564-22.974359 22.974359s10.502564 22.974359 22.974359 22.974359zM357.74359 856.6153850000001c-11.158974 0-19.692308-8.533333-19.692308-19.692308v-39.384615c0-11.158974 8.533333-19.692308 19.692308-19.692308h315.076923c11.158974 0 19.692308 8.533333 19.692308 19.692308V836.923077c0 11.158974-8.533333 19.692308-19.692308 19.692308H357.74359z m0 39.384615h315.076923c32.820513 0 59.076923-26.25641 59.076923-59.076923v-39.384615c0-32.820513-26.25641-59.076923-59.076923-59.076924H357.74359c-32.820513 0-59.076923 26.25641-59.076923 59.076924V836.923077c0 32.820513 26.25641 59.076923 59.076923 59.076923zM298.666667 567.7948719999999a39.384615 39.384615 0 1 1 78.76923 0 39.384615 39.384615 0 1 1-78.76923 0ZM659.692308 567.7948719999999a39.384615 39.384615 0 1 1 78.76923 0 39.384615 39.384615 0 1 1-78.76923 0ZM422.071795 468.020513c-7.876923 4.594872-10.502564 14.441026-5.907692 22.317949 4.594872 7.876923 14.441026 10.502564 22.317948 5.907692 28.225641-16.410256 55.794872-24.287179 84.020513-24.28718s55.794872 7.876923 84.020513 24.28718c7.876923 4.594872 17.723077 1.969231 22.317949-5.907692 4.594872-7.876923 1.969231-17.723077-5.907693-22.317949-32.820513-19.035897-66.297436-28.225641-99.774359-28.225641S454.892308 449.641026 422.071795 468.020513z"  horiz-adv-x="1024" />

    
    <glyph glyph-name="tijiaochenggong1" unicode="&#59026;" d="M1049.770667 309.589333c-39.424 110.854564-18.773333 191.133538-10.581334 270.060308-213.740308-100.929641-362.889846-408.549744-409.836307-514.441846-18.773333 28.750769-60.455385 117.156103-99.656205 189.860102-32.597333-17.578667-201.806769-122.88-201.80677-122.88 100.273231-35.669333 229.362872-152.221538 313.93477-255.645538 86.514872 147.954872 305.217641 416.741744 407.945846 433.046974zM312.188718 894.936615H614.925128v-104.920615H312.188718V894.936615z m-88.300308-270.375384h466.221949v-61.80759H223.88841v61.80759z m0-164.627693h466.221949v-61.807589H223.88841v61.807589zM646.629744 217.665641l36.798359 61.80759h-113.257026l42.207179-61.80759h34.251488zM467.889231 279.473231H223.88841v-61.80759h150.422975l93.577846 61.80759zM58.420513-23.788308V805.034667h133.684513V863.533949H0v-944.180513h525.036308l-57.147077 56.858256H58.420513z m798.798769 0H766.949744l-45.069129-56.858256h193.010872V149.924103l-57.672205-66.848821v-106.86359z m0 528.869744l57.672205 57.672205V863.533949H733.525333v-58.564923h123.693949V505.068308z"  horiz-adv-x="1050" />

    
    <glyph glyph-name="tijiaochenggong2" unicode="&#59103;" d="M267.309511-94.537956c0-18.454756 149.276444-33.302756 333.277867-33.302755 184.001422 0 333.880889 14.848 333.880889 33.302755s-149.276444 33.302756-333.880889 33.302756c-184.615822 0-333.277867-14.848-333.277867-33.302756zM273.408 890.515911h655.587556v-873.710933H273.408zM933.865244 11.320889H267.309511V896h666.555733v-884.679111z m-654.984533 10.968178h644.619378V885.031822H278.880711V22.300444zM366.011733 721.134933h447.829334v-81.646933h-447.829334v81.646933zM802.861511 710.769778v-60.302222H376.979911v60.302222h425.8816z m10.968178 10.365155h-447.829333v-82.261333h447.829333v82.261333zM366.011733 562.722133h263.213511v-54.840889H366.011733zM618.257067 552.368356v-32.904534H376.979911v32.904534h241.277156z m10.968177 10.353777H366.011733v-54.840889h263.213511v54.840889zM366.011733 431.729778H539.648v-54.840889H366.011733v54.840889zM528.6912 420.750222v-32.893155H376.365511v32.904533h152.325689z m10.968178 10.979556H366.011733v-54.840889H539.648v54.840889zM366.011733 300.726044h124.905245v-54.840888H366.011733zM479.9488 289.757867v-32.893156h-102.968889v32.893156h102.968889z m10.968178 10.968177H366.011733v-54.840888h124.905245v54.840888zM49.186133 230.058667v43.861333h16.440889v-43.872711zM60.142933 267.832889v-32.904533h-5.472711V267.832889h5.472711z m5.484089 5.484089H49.186133v-43.872711h16.440889v43.872711z m42.040889-58.493156H74.774756v5.484089h32.893155v-5.484089z m5.484089-5.484089v16.452267H69.290667v-16.452267h43.861333zM54.670222 166.684444v32.904534h5.472711V166.684444h-5.472711z m-5.484089-5.484088h16.440889v43.872711H49.186133v-43.872711zM5.916444 220.910933h32.904534v-5.484089H5.916444v5.484089z m-5.472711 5.484089v-16.452266h43.861334v16.452266H0.455111zM614.4 236.088889c0-119.250489 96.927289-216.177778 216.177778-216.177778s216.177778 96.927289 216.177778 216.177778-96.927289 216.177778-216.177778 216.177778-216.177778-96.335644-216.177778-216.177778zM797.4912 151.665778a7.7824 7.7824 0 0 0-5.495467 2.241422l-72.726755 71.896178a7.623111 7.623111 0 0 0 0 10.843022 7.839289 7.839289 0 0 0 10.979555 0l72.726756-71.873422a7.611733 7.611733 0 0 0 0-10.8544 7.748267 7.748267 0 0 0-5.484089-2.2528zM797.4912 151.665778a7.7824 7.7824 0 0 0-5.495467 2.241422 7.623111 7.623111 0 0 0 0 10.8544l150.289067 148.502756a7.839289 7.839289 0 0 0 10.979556 0 7.623111 7.623111 0 0 0 0-10.843023L802.975289 153.9072a7.771022 7.771022 0 0 0-5.484089-2.241422zM832.807822 448.898844c116.360533 0 211.012267-94.663111 211.012267-211.012266 0-116.360533-94.663111-211.012267-211.012267-211.012267-116.360533 0-211.012267 94.651733-211.012266 211.012267 0 56.661333 21.697422 109.124267 62.099911 149.515378 39.788089 39.799467 92.842667 61.496889 148.912355 61.496888z m0 10.8544c-122.390756 0-221.866667-99.475911-221.866666-221.866666s99.475911-221.866667 221.866666-221.866667 221.866667 99.475911 221.866667 221.866667-99.475911 221.866667-221.866667 221.866666zM1082.527289 102.7072a27.306667 27.306667 0 0 1 27.420444-27.420444 27.306667 27.306667 0 0 1 27.420445 27.420444 27.306667 27.306667 0 0 1-27.420445 27.420444 27.306667 27.306667 0 0 1-27.420444-27.420444zM1109.947733 124.643556a21.845333 21.845333 0 0 0 21.936356-21.936356 21.845333 21.845333 0 0 0-21.936356-21.924978 21.845333 21.845333 0 0 0-21.936355 21.924978c0 6.098489 2.434844 11.582578 6.087111 15.246222 4.881067 4.255289 10.353778 6.690133 15.849244 6.690134z m0 5.484088a27.306667 27.306667 0 0 1-27.420444-27.420444 27.306667 27.306667 0 0 1 27.420444-27.420444 27.306667 27.306667 0 0 1 27.420445 27.420444 27.306667 27.306667 0 0 1-27.420445 27.420444zM33.336889 682.143289a27.306667 27.306667 0 0 1 27.420444-27.420445 27.306667 27.306667 0 0 1 27.420445 27.420445 27.306667 27.306667 0 0 1-27.420445 27.420444 27.306667 27.306667 0 0 1-27.420444-27.420444zM60.757333 704.079644a21.845333 21.845333 0 0 0 21.936356-21.936355 21.845333 21.845333 0 0 0-21.936356-21.936356 21.845333 21.845333 0 0 0-21.936355 21.936356c0 6.087111 2.434844 11.5712 6.098489 15.234844 4.869689 4.255289 9.750756 6.701511 15.837866 6.701511z m-27.420444-21.936355a27.306667 27.306667 0 0 1 27.420444-27.420445 27.306667 27.306667 0 0 1 27.420445 27.420445 27.306667 27.306667 0 0 1-27.420445 27.420444 27.306667 27.306667 0 0 1-27.420444-27.420444zM1018.550044 724.184178l-16.452266-54.840889 60.324978 16.452267zM1002.097778 666.908444c-0.603022 0-1.217422 0-1.820445 0.6144-0.6144 0.603022-0.6144 1.820444-0.6144 2.434845l16.452267 54.840889c0 0.603022 1.217422 1.820444 1.820444 1.820444 0.6144 0 1.831822 0 2.446223-0.6144l43.861333-38.377244c0.6144-0.6144 1.2288-1.820444 0.6144-2.434845 0-1.2288-1.217422-1.831822-1.820444-1.831822l-60.324978-16.452267h-0.6144z m17.669689 52.394667l-14.006045-45.693155 50.562845 14.017422-36.5568 31.675733z"  horiz-adv-x="1137" />

    
    <glyph glyph-name="fanhui" unicode="&#58887;" d="M766.862-125.72400000000005c-10.24 0-20.594 3.64-28.444 10.922L228.693 357.60400000000004c-15.701 14.563-15.701 38.229 0 52.792L738.418 882.802c15.701 14.563 41.187 14.563 56.889 0 15.701-14.564 15.701-38.23 0-52.793L314.027 384l481.28-446.009c15.701-14.563 15.701-38.23 0-52.793-7.851-7.282-18.205-10.922-28.445-10.922z"  horiz-adv-x="1024" />

    
    <glyph glyph-name="arrow-left-copy" unicode="&#58922;" d="M748.22087111-53.594228300000054l-72.86308661-75.4197997-510.04290086 507.48618777 510.04290086 507.48618777 72.86308661-75.41979971-429.50967498-432.06638806z"  horiz-adv-x="1024" />

    
    <glyph glyph-name="tijiaochenggong3" unicode="&#58970;" d="M512.256 895.786667C229.802667 895.786667 0.768 666.794667 0.768 384.256c0-282.453333 229.034667-511.488 511.488-511.488 282.496 0 511.530667 228.992 511.530667 511.488 0 282.538667-229.034667 511.530667-511.530667 511.530667z m249.386667-369.578667l-318.293334-320.170667a32 32 0 0 0-49.194666-4.864L235.946667 359.381333a32 32 0 0 0 45.226666 45.226667l135.125334-135.168 300.117333 301.994667a32 32 0 0 0 45.226667-45.226667z"  horiz-adv-x="1024" />

    
    <glyph glyph-name="fanhui1" unicode="&#58923;" d="M292.543659 437.725867c13.5168 0 27.0336-5.632 37.819733-16.384l438.749867-453.7344c21.060267-22.016 21.060267-57.002667 0.546133-79.018667a52.053333 52.053333 0 0 0-75.639467-0.580267L255.235925 341.777067c-21.0944 21.435733-21.0944 57.002667-0.546133 79.018666 9.728 11.844267 23.790933 16.930133 37.819733 16.930134zM726.412459 896c13.5168 0 27.0336-5.632 37.853866-16.384 21.060267-21.981867 21.060267-57.002667 0.512-78.984533L330.363392 342.357333a52.053333 52.053333 0 0 0-75.639467-0.580266c-21.060267 21.435733-21.060267 57.002667-0.546133 79.018666L688.592725 879.069867C698.866859 890.333867 712.963925 896 726.412459 896z"  horiz-adv-x="1024" />

    
    <glyph glyph-name="arrow-left" unicode="&#58891;" d="M752.62879492 5.370552999999973l-63.94095112-66.18459292-447.5877939 445.3441521 447.5877939 445.34415212 63.94095112-66.18459292-376.91591739-379.1595592z"  horiz-adv-x="1024" />

    
    <glyph glyph-name="chenggong2" unicode="&#58895;" d="M512 810.667c235.637 0 426.667-191.03 426.667-426.667S747.637-42.667 512-42.667 85.333 148.363 85.333 384 276.363 810.667 512 810.667z m182.613-297.355a32 32 0 0 1-45.258-0.032L458.923 322.56l-84.342 83.99a32 32 0 0 1-45.162-45.345l106.986-106.549a32 32 0 0 1 45.227 0.064l213.013 213.333a32 32 0 0 1-0.032 45.259z"  horiz-adv-x="1024" />

    
    <glyph glyph-name="jiantou" unicode="&#58893;" d="M512 384m-512 0a512 512 0 1 1 1024 0 512 512 0 1 1-1024 0ZM424.64 380.96000000000004l208.768-208.736a31.616 31.616 0 0 0-44.736-44.736l-223.648 223.648a31.616 31.616 0 0 0-8.384 29.824 31.616 31.616 0 0 0 8.384 29.824l223.68 223.648a31.616 31.616 0 0 0 44.704-44.736l-208.736-208.736z"  horiz-adv-x="1024" />

    
    <glyph glyph-name="jiantouzuo" unicode="&#58888;" d="M507.91424 831.35488c249.05728 0 450.96448-200.20736 450.96448-447.18592 0-246.97344-201.90208-447.18592-450.96448-447.18592-249.0624 0-450.96448 200.21248-450.96448 447.18592 0 246.97856 201.90208 447.18592 450.96448 447.18592z m0-857.10336c228.30592 0 413.38368 183.52128 413.38368 409.91744s-185.07776 409.91744-413.38368 409.91744S94.53056 610.56 94.53056 384.16896s185.07776-409.91744 413.38368-409.91744zM307.46112 403.93216L506.7776 601.5744a28.37504 28.37504 0 0 0 39.85408 0 27.8016 27.8016 0 0 0 0-39.54176L394.69568 411.37664h308.59776c15.55968 0 28.1856-12.5184 28.1856-27.95008 0-15.4368-12.62592-27.95008-28.1856-27.95008H396.20096l150.43072-149.1712a27.776 27.776 0 0 0 0-39.52128 28.34432 28.34432 0 0 0-39.85408 0l-197.15072 195.49696c-3.6864 3.05664-6.6048 6.82496-8.33024 11.35616-0.14336 0.37376-0.10752 0.78336-0.23552 1.16224-0.91648 2.75456-1.7408 5.56544-1.7408 8.6272 0 0.05632 0.01536 0.1024 0.01536 0.1536a27.56096 27.56096 0 0 0 8.12544 20.352z"  horiz-adv-x="1024" />

    
    <glyph glyph-name="youjiantou" unicode="&#58962;" d="M799.49625 896C517.09 896 287.5 666.25875 287.5 383.9975c0-282.255 229.59-511.99625 511.99625-511.99625 282.25625 0 511.9975 229.74125 511.9975 511.99625C1311.49375 666.25875 1081.82625 896 799.49625 896zM799.49625-59.68375c-244.955 0-444.2675 199.0925-444.2675 443.68125C355.22375 628.66125 554.4625 827.7575 799.49625 827.7575c244.88375 0 444.195-199.09625 444.195-443.76C1243.69125 139.345 1044.375-59.68375 799.49625-59.68375zM892.46 102.035M768.4875 666.03875 768.4875 666.03875c6.58125 0 13.09-2.4125 17.92375-7.46625l272.745-274.49625L786.55375 109.4225c-9.94625-9.94625-26.035-9.94625-35.98625 0-9.94625 10.16625-9.94625 26.3275 0 36.27875l236.7625 238.375L750.42 622.37125c-9.94625 10.0925-9.94625 26.18625 0 36.12875C755.39625 663.62625 761.905 666.03875 768.4875 666.03875L768.4875 666.03875zM980.33875 356.83375 566.7125 356.83375c-14.8425 0-26.875 12.0325-26.875 26.875l0 0c0 14.8425 12.0325 26.875 26.875 26.875l413.62625 0c14.8425 0 26.875-12.0325 26.875-26.875l0 0C1007.21375 368.86625 995.18125 356.83375 980.33875 356.83375z"  horiz-adv-x="1600" />

    
    <glyph glyph-name="youjiantou1" unicode="&#58937;" d="M512-107.52512c-271.0272 0-491.52512 220.4928-491.52512 491.52512C20.47488 655.0272 240.9728 875.52512 512 875.52512c271.03232 0 491.52512-220.49792 491.52512-491.52512 0-271.03232-220.4928-491.52512-491.52512-491.52512z m0 911.37024c-231.5008 0-419.84512-188.34432-419.84512-419.84512 0-231.50592 188.34432-419.84512 419.84512-419.84512 231.50592 0 419.84512 188.3392 419.84512 419.84512 0 231.5008-188.3392 419.84512-419.84512 419.84512zM234.42432 383.99488c0-32.73216 26.54208-59.26912 59.27424-59.26912h295.06048l-35.77856-35.77856c-23.15776-23.15264-23.36256-60.50816-0.44544-83.4304 22.92224-22.92736 60.27776-22.7072 83.44064 0.44544l136.09472 136.09472 0.44544 0.45056a58.1888 58.1888 0 0 1 17.05984 41.48224 58.09664 58.09664 0 0 1-17.05984 41.50272l-0.44544 0.44544-136.09472 136.09984c-23.15776 23.15776-60.5184 23.36768-83.44064 0.44544-22.91712-22.92224-22.71744-60.27776 0.44544-83.43552l35.77856-35.77856H293.69856c-32.73216 0.00512-59.27424-26.53696-59.27424-59.27424z"  horiz-adv-x="1024" />

    
    <glyph glyph-name="roundArr-right-stroke-copy" unicode="&#59463;" d="M63.67505706 383.50213900999995C63.67505706 630.7163177 264.78331937 831.82458001 512.00375293 831.82458001c247.21417868 0 448.32119002-201.10826134 448.32119001-448.32244099 0-247.22043355-201.10826134-448.32744393-448.32119001-448.32744393C264.78331937-64.82655590000002 63.67505706 136.28170547000002 63.67505706 383.50213900999995L63.67505706 383.50213900999995zM896.28227531 383.50213900999995c0 211.89733201-172.38244136 384.27727141-384.27727141 384.27727142-211.90233493 0-384.2835263-172.38119038-384.28352629-384.27727141 0-211.90108396 172.38119038-384.28227531 384.28352629-384.28227532C723.89983297-0.7813863000000083 896.28227531 171.59980409000002 896.28227531 383.50213900999995L896.28227531 383.50213900999995zM565.67140039 200.90354262000005l160.37373775 158.61121064c9.47937039 9.35302868 11.85108946 23.18555429 7.13892378 34.81022984-0.28770879 0.73303171-0.99196905 1.30969929-1.34222271 2.01771246-1.47231735 2.97590711-3.07347736 5.95681718-5.54276765 8.45362698-0.02751951 0.02877049-0.06379586 0.02877049-0.09131633 0.06379586-0.03502537 0.02877049-0.03502537 0.06504685-0.06504683 0.09757025L567.11119431 564.42827271c-12.48780094 12.52407728-32.757492 12.55284778-45.27531537 0.06879976-6.28080232-6.24452596-9.41682552-14.47799389-9.41682552-22.67268257 0-8.16842013 3.10224883-16.36436076 9.34802576-22.60888672l103.37117268-103.69390682L319.86199027 415.52159636c-17.70783443 0-32.02571223-14.34664829-32.02571224-32.0207083 0-17.67906395 14.31662681-32.02571223 32.02571223-32.02571225l306.97499284 0-106.18946564-105.0373805c-6.34334718-6.24452596-9.51064284-14.50801535-9.51064285-22.76524988 0-8.13589672 3.07347736-16.27179344 9.25545844-22.51631939C532.81383619 188.57460679999997 553.08728018 188.44826508999995 565.67140039 200.90354262000005L565.67140039 200.90354262000005zM565.67140039 200.90354262000005"  horiz-adv-x="1024" />

    
    <glyph glyph-name="youjiantou2" unicode="&#58956;" d="M531.748571 832.219429a449.536 449.536 0 1 1 0-898.998858 449.536 449.536 0 0 1 0 898.998858z m245.613715-467.894858l-1.682286-1.462857-197.632-197.632a21.430857 21.430857 0 0 0-30.281143 30.281143L710.948571 358.765714H300.617143a20.626286 20.626286 0 0 0-20.626286 20.48c0 11.410286 9.289143 20.626286 20.553143 20.626286h411.062857L541.403429 569.929143a21.430857 21.430857 0 0 0 30.281142 30.281143l203.922286-203.849143 1.682286-1.462857a21.357714 21.357714 0 0 0 6.290286-15.213715 22.235429 22.235429 0 0 0-6.290286-15.36z"  horiz-adv-x="1024" />

    
    <glyph glyph-name="xiangzuojiantou-o" unicode="&#59122;" d="M512-42.666667c235.648 0 426.666667 191.018667 426.666667 426.666667S747.648 810.666667 512 810.666667 85.333333 619.648 85.333333 384s191.018667-426.666667 426.666667-426.666667z m0-85.333333C229.248-128 0 101.248 0 384S229.248 896 512 896s512-229.248 512-512-229.248-512-512-512zM445.013333 341.333333l97.066667-97.194666a43.093333 43.093333 0 0 0 0-60.885334 42.922667 42.922667 0 0 0-60.757333 0l-170.069334 170.325334a42.922667 42.922667 0 0 0 0 60.842666l170.069334 170.325334a42.922667 42.922667 0 0 0 60.757333 0 43.093333 43.093333 0 0 0 0-60.885334L445.013333 426.666667H682.666667a42.666667 42.666667 0 1 0 0-85.333334h-237.653334z"  horiz-adv-x="1024" />

    
    <glyph glyph-name="xiangzuojiantou-s" unicode="&#59186;" d="M512-128C229.248-128 0 101.248 0 384S229.248 896 512 896s512-229.248 512-512-229.248-512-512-512z m-66.986667 469.333333H682.666667a42.666667 42.666667 0 1 1 0 85.333334h-237.653334l97.066667 97.194666a43.093333 43.093333 0 0 1 0 60.885334 42.922667 42.922667 0 0 1-60.757333 0l-170.069334-170.325334a42.922667 42.922667 0 0 1 0-60.842666l170.069334-170.325334a42.922667 42.922667 0 0 1 60.757333 0 43.093333 43.093333 0 0 1 0 60.885334L445.013333 341.333333z"  horiz-adv-x="1024" />

    
    <glyph glyph-name="icon-test" unicode="&#58885;" d="M892.367-86.49099999999999H131.632c-49.694 0-90.124 40.43-90.124 90.124V764.3679999999999c0 49.694 40.429 90.124 90.124 90.124h760.735c49.694 0 90.124-40.429 90.124-90.124v-760.735c0-49.695-40.429-90.124-90.124-90.124zM131.632 808.491c-24.33 0-44.124-19.794-44.124-44.124v-760.735c0-24.33 19.794-44.124 44.124-44.124h760.735c24.33 0 44.124 19.794 44.124 44.124V764.3679999999999c0 24.33-19.794 44.124-44.124 44.124H131.632z"  horiz-adv-x="1024" />

    
    <glyph glyph-name="xuanze" unicode="&#58920;" d="M838.0491070251464 805.875H185.95089297485356C133.3370539245605 805.875 90.125 762.723214050293 90.125 710.0491070251464v-652.0982140502929C90.125 5.3370539245604505 133.276785949707-37.875 185.95089297485356-37.875h652.0982140502929c52.674107025146476 0 95.82589297485352 43.15178594970703 95.82589297485352 95.82589297485352V710.0491070251464C933.875 762.6629460754395 890.723214050293 805.875 838.0491070251464 805.875z m38.33035702514648-747.9241070251464a38.99330392456054 38.99330392456054 0 0 0-38.390625-38.270089050292974H186.011160949707a38.93303594970703 38.93303594970703 0 0 0-38.33035702514648 38.33035702514648V709.988839050293c0 20.732142974853513 17.59821405029297 38.33035702514648 38.33035702514648 38.33035702514648h651.977678100586c20.732142974853513 0 38.390625-17.59821405029297 38.390625-38.33035702514648v-651.977678100586z"  horiz-adv-x="1024" />

    
    <glyph glyph-name="xuanze1" unicode="&#58921;" d="M837.9973144531249 805.875H186.00268554687506C133.26831054687506 805.875 90.125 762.731689453125 90.125 709.997314453125V58.002685546875114c0-52.734375 43.143310546875-95.877685546875 95.877685546875-95.877685546875h651.9946289062499c52.734375 0 95.877685546875 43.143310546875 95.877685546875 95.877685546875V709.997314453125C933.875 762.731689453125 890.7316894531249 805.875 837.9973144531249 805.875z m38.35189819335938-747.8714904785157c0-20.71060180664063-17.647064208984375-38.34613037109375-38.35272216796874-38.34613037109375H186.00350952148438c-20.711425781249996 0-38.34613037109375 17.63552856445312-38.34613037109375 38.34613037109375V709.997314453125c0 20.704833984375 17.634704589843754 38.34613037109375 38.34613037109375 38.34613037109375h651.9929809570312c20.705657958984375 0 38.35272216796874-17.64129638671875 38.35272216796874-38.34613037109375V58.002685546875114zM752.6846313476562 604.0325317382812L394.40234375 230.46304321289062 269.36090087890625 360.85784912109375c-11.378265380859373 11.871002197265625-29.824584960937496 11.871002197265625-41.2020263671875 0-11.384857177734375-11.865234375-11.384857177734375-31.095153808593746 0-42.96697998046875l145.64163208007812-151.8914794921875c5.692016601562501-5.9326171875 13.149810791015623-8.89892578125 20.60101318359375-8.89892578125 7.463562011718751 0 14.914764404296875 2.96630859375 20.60101318359375 8.89892578125l378.8841247558594 395.0587463378906c11.384857177734375 11.871002197265625 11.384857177734375 31.10256958007813 0 42.974395751953125-11.37744140625 11.871002197265625-29.82376098632812 11.871002197265625-41.2020263671875 0z"  horiz-adv-x="1024" />

    
    <glyph glyph-name="duoxuanxuanzhong" unicode="&#59582;" d="M128 844.8C83.2 844.8 51.2 812.8 51.2 768v-768c0-44.8 32-76.8 76.8-76.8h768c44.8 0 76.8 32 76.8 76.8V768c0 44.8-32 76.8-76.8 76.8H128zM128 896h768c70.4 0 128-57.6 128-128v-768c0-70.4-57.6-128-128-128H128c-70.4 0-128 57.6-128 128V768C0 838.4 57.6 896 128 896zM793.6 640L396.8 313.6 230.4 435.2 192 384l204.8-204.8L832 614.4z"  horiz-adv-x="1024" />

    
    <glyph glyph-name="duoxuanxuanzhong1" unicode="&#59010;" d="M136.533333 896h750.933334a136.533333 136.533333 0 0 0 136.533333-136.533333v-750.933334a136.533333 136.533333 0 0 0-136.533333-136.533333H136.533333a136.533333 136.533333 0 0 0-136.533333 136.533333V759.466667a136.533333 136.533333 0 0 0 136.533333 136.533333zM460.117333 164.864L219.818667 388.778667l46.421333 44.373333 193.877333-182.954667 370.688 352.938667 47.104-44.373333-417.792-393.898667zM460.117333 141.653333L194.56 388.778667l71.68 68.266666 193.877333-183.637333 370.688 352.938667 68.266667-68.266667zM244.394667 388.778667l215.722666-200.704 392.533334 370.688-21.845334 20.48-370.688-352.938667L266.24 409.258667z"  horiz-adv-x="1024" />

    
    <glyph glyph-name="duoxuanxuanzhong2" unicode="&#59036;" d="M910.222 896H113.778C51.2 896 0 844.8 0 782.222v-796.444C0-76.8 51.2-128 113.778-128h796.444C972.8-128 1024-76.8 1024-14.222V782.222C1024 844.8 972.8 896 910.222 896z m-96.71-366.933l-344.18-335.645c-5.689-5.689-14.222-8.533-22.755-8.533-8.534 0-17.067 2.844-22.756 8.533L236.09 375.467c-11.378 11.377-11.378 31.289 0 42.666 11.378 11.378 31.289 11.378 45.511 0L446.578 256 768 568.889c11.378 11.378 31.289 11.378 45.511 0 14.222-5.689 14.222-25.6 0-39.822z"  horiz-adv-x="1024" />

    
    <glyph glyph-name="xiayibu" unicode="&#58880;" d="M118.105 131.503c7.575-12.624 22.725-15.15 35.35-7.575s15.15 22.725 7.575 35.35C118.105 224.928 95.38 303.201 95.38 384 95.38 613.772 282.229 800.62 512 800.62S928.62 613.771 928.62 384 741.771-32.62 512-32.62c-108.574 0-209.572 40.4-287.846 116.149-10.1 10.1-25.25 10.1-35.35 0-10.1-10.1-10.1-25.25 0-35.35C277.178-35.143 390.802-83.118 512-83.118c257.547 0 467.119 209.572 467.119 467.119S769.547 851.119 512 851.119 44.881 641.547 44.881 384c0-88.374 25.25-176.748 73.224-252.497zM249.404 384c0-15.15 10.1-25.25 25.25-25.25h414.094L529.675 199.677c-10.1-10.1-10.1-25.25 0-35.349 5.05-5.05 12.625-7.575 17.675-7.575s12.624 2.525 17.674 7.575l201.998 201.997c2.525 2.525 5.05 5.05 5.05 7.575 2.524 2.525 2.524 7.575 2.524 10.1s0 7.575-2.524 10.1c-2.525 2.525-2.525 5.05-5.05 7.575L565.024 603.672c-10.1 10.1-25.25 10.1-35.35 0s-10.1-25.25 0-35.35L688.749 409.25H274.653c-15.15 0-25.25-12.625-25.25-25.25z"  horiz-adv-x="1024" />

    
    <glyph glyph-name="sousuo1" unicode="&#58883;" d="M897.9 47.1l-175.8 167c51.7 58.8 79.9 132 79.9 209.6 0 87.4-35.9 169.5-100.9 231.4C636 717 549.6 751 457.5 751s-178.4-34.1-243.6-95.9C148.7 593.4 113 511.2 113 423.7s35.9-169.5 100.9-231.4c65-61.9 151.8-95.9 243.7-95.9 69.8 0 136.5 19.6 193.1 56.2l179.1-170.2c9.3-8.9 21.7-13.5 34-13.5 12.2 0 24.6 4.4 33.9 13.5 19 17.9 19 46.9 0.2 64.7M626.1 250.8c-2.1-1.4-4-3-5.8-4.7l-1.5-1.4C575.4 209.3 519 188 457.6 188c-136.9 0-248.3 105.8-248.3 235.9 0 130.1 111.3 235.9 248.3 235.9 136.9 0 248.3-105.8 248.3-235.9 0-68.5-30.8-130-79.8-173.1"  horiz-adv-x="1024" />

    
    <glyph glyph-name="sousuo2" unicode="&#58957;" d="M462.411925 91.693358a344.228836 344.228836 0 1 0 344.228836 343.909514 344.228836 344.228836 0 0 0-344.228836-343.909514z m546.998141-121.980905l-184.887287 184.887287a455.991446 455.991446 0 0 1 95.796522 281.003132 460.142628 460.142628 0 1 1-176.904244-362.430175L929.579631-111.075948a57.158592 57.158592 0 0 1 80.788401 0 57.158592 57.158592 0 0 1 0 80.788401z"  horiz-adv-x="1028" />

    
    <glyph glyph-name="sousuo" unicode="&#58902;" d="M103.492267 442.709333c0 211.421867 167.662933 383.453867 373.76 383.453867 206.165333 0 373.828267-172.032 373.828266-383.453867 0-211.490133-167.7312-383.522133-373.896533-383.522133-205.960533 0-373.691733 172.032-373.691733 383.522133z m886.306133-521.693866l-197.973333 202.752a457.045333 457.045333 0 0 1 128.6144 318.941866C920.439467 692.565333 721.578667 896 477.184 896 232.925867 896 34.133333 692.565333 34.133333 442.709333c0-249.992533 198.8608-453.290667 443.1872-453.290666a433.7664 433.7664 0 0 1 262.144 88.541866L940.373333-128l49.425067 49.015467h-0.068267z"  horiz-adv-x="1024" />

    
    <glyph glyph-name="xiaoyuanquan" unicode="&#58938;" d="M509.53216 883.65568c-275.54304 0-498.9184-223.37536-498.9184-498.9184s223.37024-498.9184 498.9184-498.9184c275.54304 0 498.9184 223.37024 498.9184 498.9184 0 275.54304-223.37536 498.9184-498.9184 498.9184z m0-726.64576c-125.76768 0-227.72736 101.95968-227.72736 227.72736s101.95968 227.72736 227.72736 227.72736 227.72736-101.95968 227.72736-227.72736-101.95968-227.72736-227.72736-227.72736z"  horiz-adv-x="1024" />

    
    <glyph glyph-name="xiaoyuanquanx" unicode="&#60352;" d="M512-128a512 512 0 1 0 0 1024 512 512 0 0 0 0-1024z m-0.64 257.28a255.36 255.36 0 1 1 0 510.72 255.36 255.36 0 0 1 0-510.72z"  horiz-adv-x="1024" />

    
    <glyph glyph-name="dizhiqianxiaoyuanquan" unicode="&#58882;" d="M512-128c282.763636 0 512 229.236364 512 512S794.763636 896 512 896 0 666.763636 0 384s229.236364-512 512-512z m0 186.181818a325.818182 325.818182 0 1 0 0 651.636364 325.818182 325.818182 0 0 0 0-651.636364z"  horiz-adv-x="1024" />

    
    <glyph glyph-name="hangyeqianjinghao" unicode="&#58900;" d="M1023.737218 396.782204C1016.680905 679.443782 781.879537 902.89369 499.217959 895.837378S-6.893527 653.979696 0.162786 371.318118c1.738512-68.006494 16.566996-132.535964 42.133346-191.236306 0.818123-1.943043 1.738512-3.886085 2.556635-5.829128 1.431716-4.090616 5.420066-6.954047 9.919744-6.851782 5.624597 0.102265 10.124275 4.806474 10.02201 10.533337 0 1.636246-0.511327 3.272493-1.227185 4.601943-0.818123 1.943043-1.738512 3.78382-2.556635 5.726862-25.259555 57.984484-38.860854 119.855054-40.394835 183.668667-1.636246 66.370247 9.715213 131.001983 33.849849 192.156695 23.316512 59.109404 57.370892 112.59421 101.447281 158.818173s95.720419 83.039508 153.602638 109.219452C369.443161 859.226363 433.461304 873.850316 499.831551 875.486562c66.370247 1.636246 131.001983-9.715213 192.156695-33.849849 59.109404-23.316512 112.59421-57.370892 158.818173-101.447281s83.039508-95.720419 109.219452-153.602637c27.100332-59.927527 41.724285-123.94567 43.360532-190.315918 1.636246-66.370247-9.715213-131.001983-33.849849-192.156695-23.316512-59.109404-57.370892-112.59421-101.447281-158.818173S772.368854-37.743499 714.486635-63.923443c-59.927527-27.100332-123.94567-41.724285-190.315917-43.360531-137.137907-3.374758-267.93536 50.007783-363.348982 147.364447 2.45437 4.397412 3.78382 9.408417 3.681554 14.828484-0.409062 16.055668-13.703564 28.634313-29.759232 28.327517-16.055668-0.409062-28.634313-13.703564-28.327517-29.759233 0.409062-16.055668 13.703564-28.634313 29.759232-28.327517 3.170228 0.102265 6.135924 0.613592 8.999356 1.636247 96.027215-98.481584 231.119814-158.306846 379.506916-154.625292 282.661578 7.158578 506.009221 241.959947 499.055173 524.621525zM236.498135 50.204748c36.201953-36.201953 78.233034-64.52947 125.172855-84.368958 48.576067-20.555346 100.117831-30.986418 153.295841-30.986418 55.427849 0 109.014921 11.249194 159.3295 33.543053 38.144996 16.873792 72.812968 39.474446 103.69712 67.188371 2.556635-0.613592 5.215536-1.022654 7.976702-1.022654 17.691915 0 32.009072 14.317157 32.009072 32.009071s-14.317157 32.009072-32.009072 32.009072c-8.078967 0-15.544341-3.067962-21.168939-7.976702-14.419422 9.919744-41.519754 24.952759-85.493878 37.020077 19.123631 49.700987 36.099688 114.741784 37.531404 190.827244h171.294552c-1.636246-58.700342-17.078323-116.37803-44.894512-167.715263-2.658901-5.011005-0.818123-11.146929 4.090616-13.908095 1.533981-0.818123 3.272493-1.227185 4.908739-1.227185 3.579289 0 7.158578 1.943043 8.999356 5.317801 31.088683 57.268626 47.553413 122.104893 47.553413 187.657017 0 5.624597-4.601943 10.22654-10.226541 10.226541H131.471565c-5.624597 0-10.22654-4.601943-10.226541-10.226541 0-53.17801 10.431071-104.719774 30.986418-153.295841 19.737223-46.837555 48.167005-88.970902 84.266693-125.07059z m-94.697764 268.139891h171.294552c1.431716-76.085461 18.407773-141.126258 37.531403-190.827245-69.43821-19.123631-96.845338-45.61037-98.583849-47.348882-3.988351-3.988351-3.988351-10.533337 0-14.521687 2.045308-2.045308 4.601943-2.965697 7.260843-2.965697 2.556635 0 5.215536 1.022654 7.158579 2.965697 0.204531 0.102265 15.953403 15.339811 54.200664 30.372825 10.22654 3.988351 22.805185 8.283498 37.735934 12.271848 9.817479-22.907451 19.634958-41.82655 27.81619-56.041441 23.214247-40.394835 49.496456-72.710703 74.653745-93.061518-177.021415 25.770882-314.159322 176.305557-319.068061 359.1561zM504.740291-43.0613c-25.055024 7.669905-63.813612 41.417489-100.731423 105.537897-7.465375 12.987706-16.46473 30.066029-25.464086 50.723641 32.520399 7.158578 74.244684 12.68091 126.195509 13.294502V-43.0613z m20.453081 169.55604c51.950825-0.613592 93.67511-6.135924 126.195509-13.294502-8.999356-20.657612-17.896446-37.735934-25.464086-50.723641-36.917811-64.120409-75.676399-97.867992-100.731423-105.537897V126.49474z m-20.453081 20.453081c-54.814257-0.613592-98.992911-6.44272-134.172211-14.419422-18.714569 48.06474-35.588361 111.469291-37.122341 185.81624h171.192286v-171.396818z m204.530809-50.928171c22.293858-8.794825 37.020076-17.58965 45.405839-23.418778-0.409062-1.943043-0.613592-3.988351-0.613592-6.033659 0-7.158578 2.352104-13.80583 6.340455-19.12363-53.996134-47.042086-120.673177-77.619442-191.236306-88.050514 25.157289 20.453081 51.337233 52.666683 74.551479 92.959253 8.181232 14.214891 18.100977 33.133991 27.81619 56.041442 14.930749-4.090616 27.407128-8.385763 37.735935-12.374114z m-49.905518 36.508749c-35.179299 7.976702-79.357954 13.80583-134.17221 14.419422V318.344639h171.192287c-1.431716-74.346949-18.305507-137.7515-37.020077-185.81624zM745.98438 367.329768H624.390814c-6.23819 0-11.35146 5.11327-11.35146 11.351459V744.177783c0 6.340455 5.11327 11.35146 11.35146 11.35146h121.593566c6.340455 0 11.35146-5.11327 11.35146-11.35146v-365.39429c0.102265-6.340455-5.011005-11.453725-11.35146-11.453725z m-110.139841 22.805185h98.788381v342.589105h-98.788381v-342.589105zM546.464576 367.329768H424.973275c-6.23819 0-11.35146 5.11327-11.351459 11.351459V587.813979c0 6.340455 5.11327 11.35146 11.351459 11.35146h121.593566c6.340455 0 11.35146-5.11327 11.35146-11.35146v-209.030486c0-6.340455-5.11327-11.453725-11.453725-11.453725z m-110.139841 22.805185H535.113116V576.360254h-98.788381v-186.225301zM346.944772 367.329768H225.453471c-6.23819 0-11.35146 5.11327-11.351459 11.351459V474.401646c0 6.340455 5.11327 11.35146 11.351459 11.35146h121.593566c6.340455 0 11.35146-5.11327 11.35146-11.35146v-95.618153c0-6.340455-5.11327-11.453725-11.453725-11.453725z m-110.139841 22.805185h98.788381v72.812968h-98.788381v-72.812968zM441.949333 631.890369c-2.863431 0-5.829128 1.124919-8.078967 3.374758-4.499678 4.499678-4.499678 11.658256 0 16.157934l80.176077 80.176077L433.870366 811.775215c-4.499678 4.499678-4.499678 11.658256 0 16.157934s11.658256 4.499678 16.157934 0l88.152778-88.255044c4.499678-4.499678 4.499678-11.658256 0-16.157934l-88.152778-88.255044c-2.249839-2.249839-5.11327-3.374758-8.078967-3.374758zM143.027556 425.518783c-0.715858 0-1.431716 0.102265-2.147574 0.20453-6.23819 1.227185-10.22654 7.158578-8.999356 13.396768 34.25891 177.225946 188.986467 305.875825 367.950925 305.875825 6.340455 0 22.805185-5.726863 22.805186-12.067318 0-6.340455-16.46473-10.737867-22.805186-10.737867-168.022059 0-313.341199-120.877708-345.554801-287.365787-1.124919-5.522332-5.829128-9.306152-11.249194-9.306151z"  horiz-adv-x="1024" />

    
    <glyph glyph-name="tuanduijieshao" unicode="&#58884;" d="M804.571429 340.114286c43.885714 29.257143 75.580952 80.457143 75.580952 138.971428 0 90.209524-73.142857 165.790476-165.790476 165.790476-12.190476 0-21.942857-9.752381-21.942857-21.942857s9.752381-21.942857 21.942857-21.942857c65.828571 0 121.904762-53.638095 121.904762-121.904762 0-65.828571-53.638095-121.904762-121.904762-121.904762-12.190476 0-21.942857-9.752381-21.942857-21.942857s9.752381-21.942857 21.942857-21.942857c112.152381 0 199.92381-90.209524 199.923809-199.923809 0-12.190476 9.752381-21.942857 21.942857-21.942858s21.942857 9.752381 21.942858 21.942858c0 102.4-63.390476 187.733333-153.6 226.742857z m-468.114286-7.314286c0 12.190476-9.752381 21.942857-21.942857 21.942857-65.828571 0-121.904762 53.638095-121.904762 121.904762 0 65.828571 53.638095 121.904762 121.904762 121.904762 12.190476 0 21.942857 9.752381 21.942857 21.942857s-9.752381 21.942857-21.942857 21.942857c-90.209524 0-165.790476-73.142857-165.790476-165.790476 0-58.514286 31.695238-109.714286 75.580952-138.971429-90.209524-36.571429-156.038095-124.342857-156.038095-226.742857 0-12.190476 9.752381-21.942857 21.942857-21.942857s21.942857 9.752381 21.942857 21.942857c0 112.152381 90.209524 199.92381 199.923809 199.92381 14.628571 0 24.380952 9.752381 24.380953 21.942857zM609.52381 332.8c53.638095 34.133333 90.209524 90.209524 90.209523 160.914286 0 102.4-85.333333 187.733333-187.733333 187.733333s-187.733333-85.333333-187.733333-187.733333c0-65.828571 36.571429-126.780952 90.209523-160.914286-104.838095-39.009524-180.419048-138.971429-180.419047-260.87619 0-12.190476 9.752381-21.942857 21.942857-21.942858s21.942857 9.752381 21.942857 21.942858c0 102.4 65.828571 190.171429 158.476191 219.428571 4.87619-19.504762 14.628571-36.571429 31.695238-46.32381-12.190476-29.257143-26.819048-92.647619-12.190476-177.980952 2.438095-12.190476 12.190476-17.066667 21.942857-17.066667h4.87619c12.190476 2.438095 19.504762 12.190476 17.066667 26.819048-12.190476 75.580952 2.438095 134.095238 12.190476 156.038095h4.87619c9.752381-24.380952 24.380952-80.457143 12.190477-156.038095-2.438095-12.190476 7.314286-24.380952 17.066666-26.819048h4.876191c12.190476 0 19.504762 7.314286 21.942857 17.066667 12.190476 85.333333-2.438095 146.285714-12.190476 177.980952 14.628571 12.190476 26.819048 29.257143 31.695238 46.32381 90.209524-31.695238 158.47619-117.028571 158.47619-219.428571 0-12.190476 9.752381-21.942857 21.942857-21.942858s21.942857 9.752381 21.942858 21.942858c-2.438095 121.904762-78.019048 221.866667-185.295238 260.87619z m-236.495239 160.914286c0 78.019048 63.390476 141.409524 141.409524 141.409524s141.409524-63.390476 141.409524-141.409524-63.390476-141.409524-141.409524-141.409524-141.409524 60.952381-141.409524 141.409524z m141.409524-216.990476c-14.628571 0-29.257143 12.190476-31.695238 26.819047 12.190476 2.438095 19.504762 2.438095 31.695238 2.438095s21.942857 0 31.695238-2.438095c-2.438095-14.628571-17.066667-26.819048-31.695238-26.819047z"  horiz-adv-x="1024" />

    
    <glyph glyph-name="chengguozhanshi" unicode="&#59663;" d="M819.5 512.5c-3.6-14.8-7.6-29.5-12.1-44.1 40.5 13.2 70.1 49.6 82 101.4h-58.3c-3.4-19.1-7.3-38.3-11.6-57.3z m-626.4 57.4h-58.5c11.8-52.1 41.4-88.4 81.9-101.6-9.9 33.3-17.8 67.2-23.4 101.6zM958 582.6c-12.8-98.2-69.6-165.8-152.1-181.2l-22.4-4.1-2.1-0.1c-8.5-20.2-17.8-40-28.3-59.4-29.5-52.9-64.1-94.9-103-124.8-30.4-24.5-66.6-40.9-105.4-47.8v-131.3h97.7c17.9 0 32.5-14.4 32.5-32.1 0.1-17.7-14.4-32-32.5-32.1H381.7c-18 0-32.7 14.4-32.6 32.1v0.1c0 17.7 14.6 32.1 32.6 32.1h97.7V165.3c-38.8 6.8-75.2 23.2-105.4 47.8-38.7 29.8-73.4 71.9-102.9 124.8-10.6 19.2-20 39-28.4 59.3l-2.1 0.1-22.4 4.1C135.9 416.9 79 484.6 66.3 582.7l-2 15.2c-2.4 17.6 10.5 33.8 28.5 36 1.2 0.1 2.6 0.3 3.9 0.3H185c-2.7 28.6-4.2 57.4-4.5 86.2 0 11.5 0.2 22.8 0.7 34.5l0.6 12.7c0.6 17.1 15.1 30.6 32.5 30.8h595.1c17.6 0 32-13.7 32.7-30.8l0.5-12.9c1.4-40.2 0.1-80.3-3.6-120.4h88.3c17.9 0.1 32.5-13.9 32.6-31.4 0-1.6-0.1-3.3-0.4-4.8l-1.5-15.5z m0 0"  horiz-adv-x="1024" />

    
    <glyph glyph-name="chengguozhanshi1" unicode="&#58901;" d="M414.33 742.38H225.28L102.4 517.1h225.28l86.65 225.28zM921.6 517.1L798.72 742.38H609.69l86.63-225.28H921.6z m-266.24 0l-86.63 225.28H455.29L368.64 517.1h286.72zM547.226-15.38L921.6 476.14H696.32L547.226-15.38zM102.4 476.14l369.807-491.52L327.68 476.14H102.4z m266.24 0L512-15.38l143.36 491.52H368.64z"  horiz-adv-x="1024" />

    
    <glyph glyph-name="hangyeqianjing" unicode="&#58948;" d="M511.988747-127.932484C229.229714-127.932484 0.011253 101.285978 0.011253 384.056264 0.011253 666.781538 229.229714 896 511.988747 896c282.74778 0 511.943736-229.218462 511.943737-511.943736 0-282.770286-229.195956-511.988747-511.943737-511.988748z m0 1004.330198c-271.911385 0-492.386462-220.441319-492.386461-492.34145 0-271.967648 220.475077-492.397714 492.386461-492.397715 271.922637 0 492.352703 220.430066 492.352704 492.397715 0 271.900132-220.430066 492.341451-492.352704 492.34145z m429.809934-501.647472H811.469363c-7.651868 0-15.922637 6.751648-15.922638 14.381011v6.211516c0 7.629363 8.270769 13.266989 15.922638 13.266989h130.329318c7.651868 0 11.759121-5.637626 11.759121-13.266989v-6.211516c0-7.629363-4.107253-14.381011-11.759121-14.381011zM745.708308 531.377231a13.840879 13.840879 0 0 0-19.512264-1.316572l-1.057758 0.90022a13.840879 13.840879 0 0 0-1.316572 19.534769l88.199033 101.184704a13.852132 13.852132 0 0 0 19.534769 1.339077l1.035253-0.90022a13.840879 13.840879 0 0 0 1.316572-19.534769l-88.199033-101.207209zM561.793407 137.722374H118.33389v33.859516h443.830857c107.384967 0 194.368703 85.498374 194.368704 192.827077 0 107.801319-87.242549 193.524747-195.021363 193.524747-107.19367 0-194.875077-87.951473-194.875077-195.111384v-89.650638h-11.286506v90.494594c0 111.36844 93.06022 204.946286 206.544176 204.946285 114.102857 0 206.037802-101.364747 206.037803-215.445098 0-113.765275-94.421802-215.445099-206.139077-215.445099z m-5.806418 451.471472h-6.222769c-7.629363 0-13.818374 6.189011-13.818374 13.829627V733.386549c0 7.640615 6.189011 13.829626 13.818374 13.829627h6.222769c7.629363 0 13.818374-6.189011 13.818374-13.829627v-130.363076c0-7.640615-6.189011-13.829626-13.818374-13.829627zM387.76967 543.698989a13.863385 13.863385 0 0 0-19.422241 2.475604l-82.223825 106.147165a13.840879 13.840879 0 0 0 2.464352 19.422242l1.102769 0.832703a13.863385 13.863385 0 0 0 19.422242-2.464351l82.235077-106.12466a13.88589 13.88589 0 0 0-2.49811-19.422241l-1.080264-0.866462z m-77.565186-148.35622v-6.211516c0-7.629363-4.107253-14.381011-11.759121-14.381011H168.116044c-7.640615 0-15.922637 6.751648-15.922637 14.381011v6.211516c0 7.629363 8.282022 13.266989 15.922637 13.266989h130.329319c7.651868 0 11.759121-5.637626 11.759121-13.266989z m379.048791-41.466373c0 71.173626-56.983912 131.510857-128.191297 131.510857-70.498462 0-126.953495-68.022857-128.078769-137.699868-0.022505-0.708923-0.022505-85.802198-0.022506-85.802198h-7.629362s0 87.535121 0.022505 88.345318c1.305319 73.671736 61.901363 141.199473 136.484572 141.199473 75.348396 0 134.931692-67.651516 134.931692-143.022418 0-75.044571-62.71156-142.966154-137.047209-142.966153H118.33389v11.286505h441.389011c70.160879 0 129.530374 66.23367 129.530374 137.148484z m95.063209-99.440528a13.840879 13.840879 0 0 0 19.523516-1.372835l88.221538-101.184703a13.863385 13.863385 0 0 0-1.339076-19.523517l-1.035253-0.933978a13.852132 13.852132 0 0 0-19.512264 1.35033l-88.244044 101.207209a13.818374 13.818374 0 0 0 1.35033 19.534769l1.035253 0.922725z"  horiz-adv-x="1024" />

    
    <glyph glyph-name="ziyuan" unicode="&#58881;" d="M217.645789-128a34.490128 34.490128 0 0 0-34.490128 33.89547v91.577236a441.83043 441.83043 0 0 0 281.867596 411.502904l18.434378 7.135888-16.055749 12.487805a259.865273 259.865273 0 0 0-101.091754 205.751452 263.433217 263.433217 0 0 0 525.67712 0 259.865273 259.865273 0 0 0-101.091754-205.751452l-15.461091-12.487805 18.434378-7.135888a441.83043 441.83043 0 0 0 281.272939-412.097561v-90.982579a34.490128 34.490128 0 0 0-34.490128-33.89547z m412.097561 509.62137a400.204413 400.204413 0 0 1-400.799071-398.420441v-59.465737h801.598141v59.465737a399.609756 399.609756 0 0 1-400.79907 398.420441z m0 462.048781a208.724739 208.724739 0 1 1 210.50871-208.724739A209.914053 209.914053 0 0 1 629.74335 843.670151z m524.487804-832.520325a338.360046 338.360046 0 0 1-6.541231 59.465737h63.033682v46.977933a284.246225 284.246225 0 0 1-215.860627 275.326365h-8.919861a32.706156 32.706156 0 0 0 0 63.033681A148.664344 148.664344 0 0 1 1070.384465 588.562137a166.504065 166.504065 0 0 1-118.931475 138.555168 281.867596 281.867596 0 0 1-41.626017 77.305459 217.049942 217.049942 0 0 0 208.130082-215.860627 214.671312 214.671312 0 0 0-59.465738-145.096399l-10.109175-11.298491 22.002323-5.946573a350.253194 350.253194 0 0 0 190.885017-312.78978v-70.16957a34.490128 34.490128 0 0 0-34.490128-33.89547z m-1119.739837 0a34.490128 34.490128 0 0 0-34.490128 31.516841v70.764227A350.253194 350.253194 0 0 0 190.886207 426.220674l13.082462 7.135888-10.109175 10.703833a214.671312 214.671312 0 0 0-59.465738 145.096399 217.049942 217.049942 0 0 0 208.130081 215.860628 278.894309 278.894309 0 0 1-41.626016-77.305459 158.773519 158.773519 0 0 1-107.038327-139.149826 148.069686 148.069686 0 0 1 87.414634-134.392567 32.706156 32.706156 0 0 0 0-63.628339H273.543582a284.246225 284.246225 0 0 1-217.644599-277.110337V63.47967500000004h55.303135a338.360046 338.360046 0 0 1-6.541231-59.465738z"  horiz-adv-x="1261" />

    
    <glyph glyph-name="mc-mb" unicode="&#59167;" d="M480 727h64v-558h-64zM779 482c-33.7 0-59.9 17.5-83 32.9-21.8 14.6-40.7 27.1-64.5 27.1-25 0-79.6-17.1-108.2-27.9l-43.1-16.3-1.3 294.3 20.8 7.9c8.7 3.3 86.1 32.1 130.8 32.1 43.2 0 74.7-21 100-37.9 17.8-11.9 33.2-22.1 47.5-22.1 35 0 87.7 19.7 105.1 27.3l44.6 19.5 0.2-48.7 1.1-247-19.2-8.4c-3-1.4-75-32.8-130.8-32.8zM631.5 606c43.2 0 74.7-21 100-37.9 17.8-11.9 33.2-22.1 47.5-22.1 26.1 0 62.1 11 85.9 19.7l-0.7 158.5C838.7 716 806.3 708 778 708c-33.7 0-59.9 17.5-83 32.9-21.8 14.6-40.7 27.1-64.5 27.1-19.8 0-58.1-10.7-87.4-20.6l0.7-158.9c27.7 8.6 62.8 17.5 87.7 17.5zM840.6 337.9c-69 39.4-162.9 65.3-264.6 72.9v-60.2c181.4-14.7 322.4-91.2 322.4-175.7 0-20.8-8.6-41.6-25.7-61.7-18.1-21.4-45.7-41.7-79.9-58.7-74.7-37.3-174.7-57.8-281.6-57.8s-206.9 20.5-281.6 57.8c-34.2 17.1-61.8 37.4-79.9 58.7-17 20.1-25.7 40.9-25.7 61.7 0 84.7 141.8 161.4 323.9 175.8v60.2c-102.3-7.5-196.8-33.4-266.1-73C105.9 294.4 64 236.5 64 174.89999999999998c0-67.6 49.3-129.4 138.8-174.1 82.9-41.4 192.4-64.2 308.5-64.2s225.6 22.8 308.5 64.2c89.5 44.7 138.8 106.5 138.8 174.1 0 61.6-41.9 119.5-118 163z"  horiz-adv-x="1024" />

    
    <glyph glyph-name="mubiao" unicode="&#58905;" d="M840.609637 464.025089a36.585371 36.585371 0 0 1-25.996711-44.704343 378.95205 378.95205 0 0 0 12.608405-97.067718c0-207.913692-169.158596-377.112283-377.062289-377.112283S73.146747 114.339336 73.146747 322.253028 242.305342 699.29532 450.199037 699.29532a376.702335 376.702335 0 0 0 90.778513-10.998609 36.575372 36.575372 0 1 1 17.637769 70.991018 450.063052 450.063052 0 0 1-108.416282 13.148336C201.990444 772.436065 0.016 570.451623 0.016 322.253028S201.990444-128 450.199037-128s450.193036 201.974444 450.193036 450.253028a452.21278 452.21278 0 0 1-14.998103 115.775351 36.475385 36.475385 0 0 1-44.784333 25.99671zM450.199037 473.673868a36.565373 36.565373 0 1 1 0 73.130747 224.591582 224.591582 0 1 1 224.581583-224.551587 36.565373 36.565373 0 0 1-73.130747 0 150.55095 150.55095 0 0 0-44.354387-107.136444c-57.202762-57.14277-156.980137-57.14277-214.182899 0a151.460835 151.460835 0 0 0 107.08645 258.557284zM1020.156918 722.012445a56.1129 56.1129 0 0 1-49.383751 35.995446l-80.559807 4.279458-4.249462 80.589803a55.992915 55.992915 0 0 1-95.597904 36.635364l-123.984311-123.914321A56.232885 56.232885 0 0 1 649.933764 712.893599l7.049108-135.312878-199.284784-193.835474a36.565373 36.565373 0 1 1 50.993548-52.423366L710.926046 528.006993l129.893564-5.999241c0.999873-0.07999 1.929756-0.07999 2.899634-0.079989a55.992915 55.992915 0 0 1 39.664981 16.427921l124.204284 124.134293a56.092902 56.092902 0 0 1 12.568409 59.522468z m-183.076834-126.563985l-107.986337 5.639286-5.679281 107.986336 91.558415 91.558415 3.939501-75.050503a36.615367 36.615367 0 0 1 34.605622-34.575625l75.160489-3.999494z"  horiz-adv-x="1024" />

    
    <glyph glyph-name="mubiao1" unicode="&#59062;" d="M512.097804 896a511.992505 511.992505 0 1 1 511.902207-511.902207A511.902207 511.902207 0 0 1 512.097804 896z m294.463414-463.773105a8.126865 8.126865 0 0 0-0.993283-3.882836 151.430588 151.430588 0 0 0-46.232833-48.129101 235.67909 235.67909 0 0 0-66.2791-32.236565 345.030575 345.030575 0 0 0-102.940292-14.447761c-66.459697 0-100.863427-21.67164-118.020142-39.821639a81.268652 81.268652 0 0 1-22.93582-59.777608c2.43806-40.002236 39.911938-217.438792 40.273132-219.244763a9.02985 9.02985 0 0 0-2.438059-7.855969l-43.072386-42.259699a8.217164 8.217164 0 0 0-5.959701-2.43806 8.397761 8.397761 0 0 0-8.217164 6.230597L250.77394 664.203746a9.02985 9.02985 0 0 0 4.966417 9.932835l37.293282 15.441044a9.02985 9.02985 0 0 0 9.02985-2.076866l10.113432-10.926118a591.003694 591.003694 0 0 0 150.979095 27.08955h10.474626A233.963418 233.963418 0 0 0 576.119442 679.283596a228.816404 228.816404 0 0 1 61.312683-19.594775 62.125369 62.125369 0 0 1 9.661939-0.63209c57.971638 0 145.651483 59.597011 146.46417 60.229101a8.397761 8.397761 0 0 0 9.02985 0.451492 8.126865 8.126865 0 0 0 4.334328-7.585074v-279.925355z"  horiz-adv-x="1024" />

    
    <glyph glyph-name="tuanduijieshao1" unicode="&#58953;" d="M697.831765 370.414933c-128.068267 0-232.584533 108.475733-232.584533 237.329067 0 128.853333 107.861333 233.949867 235.963733 233.949867s232.584533-105.130667 232.584534-237.329067c0-128.853333-104.482133-233.949867-235.963734-233.949867z m0 525.5168c-158.4128 0-289.860267-128.8192-289.860266-291.566933 0-108.509867 57.275733-206.848 151.6544-257.706667-195.4816-61.0304-326.9632-240.708267-326.9632-447.522133 0-16.964267 13.482667-27.136 26.965333-27.136s26.965333 13.550933 26.965333 27.136c0 227.157333 182.033067 410.248533 407.893334 410.248533h10.103466c158.4128 3.413333 286.5152 132.232533 286.5152 294.980267 0 162.747733-131.447467 294.946133-293.2736 291.566933z m330.3424-664.541866c-10.103467 10.171733-26.965333 10.171733-40.448 0s-10.103467-27.136 0-40.686934c77.550933-77.960533 121.344-179.677867 117.998934-291.566933 0-16.964267 13.482667-27.136 26.965333-27.136 16.827733 0 26.965333 13.550933 26.965333 27.136a451.208533 451.208533 0 0 1-131.4816 332.253867z m-623.616 132.232533a26.658133 26.658133 0 0 1-26.965333 27.136c-104.448 3.413333-185.344 91.5456-181.998933 196.642133-3.3792 105.130667 77.5168 193.262933 182.033066 196.642134 16.861867-3.413333 26.965333 10.171733 26.965334 23.7568 0 13.550933-13.482667 27.101867-26.965334 27.101866-134.826667-3.413333-239.342933-115.268267-235.963733-250.88 0-88.1664 43.8272-169.540267 117.9648-217.019733C101.215232 309.384533-3.266901 160.187733 0.078165-9.3184c0-16.964267 13.482667-27.136 26.965334-27.136 16.861867 0 26.965333 13.550933 26.965333 27.136 0 189.8496 144.964267 342.4256 323.584 342.4256 13.5168 3.413333 26.965333 13.550933 26.965333 30.5152z m556.202667-16.964267c0-16.930133 13.482667-27.101867 26.965333-27.101866 178.653867 0 323.584-155.989333 323.584-342.459734 0-16.930133 13.5168-27.101867 26.965334-27.101866 16.861867 0 26.965333 13.550933 26.965333 27.101866 3.413333 169.540267-101.102933 318.702933-256.170667 379.733334 74.171733 47.479467 117.998933 128.853333 117.998934 217.019733 3.3792 135.611733-101.137067 247.466667-235.963734 250.88-16.861867 0-26.965333-13.550933-26.965333-27.101867 0-13.585067 13.482667-27.136 26.965333-27.136 104.482133-3.413333 185.378133-91.5456 182.033067-196.642133 3.345067-105.130667-77.550933-193.262933-182.033067-196.676267-16.861867-3.3792-26.965333-13.550933-30.344533-30.5152z"  horiz-adv-x="1365" />

    
    <glyph glyph-name="chengguozhanshi2" unicode="&#58907;" d="M211.693173-127.793001a30.875879 30.875879 0 0 0-10.359959 1.827993 30.063883 30.063883 0 0 0-20.312921 25.797899l-8.124968 77.596697a52.407795 52.407795 0 0 1-46.922817 46.516818l-77.799696 7.71897a30.875879 30.875879 0 0 0-18.890926 51.594799l184.443279 185.865274 21.531916-21.531916L51.016801 62.947254l77.799696-8.327967a83.080675 83.080675 0 0 0 74.345709-73.939712l8.124969-77.596696L440.42028 133.02798l21.531915-21.531916-228.522107-230.148101a29.859883 29.859883 0 0 0-21.735915-9.139964z m592.533685-0.202999a31.079879 31.079879 0 0 0-22.749911 10.15696L563.3138 122.058023l22.547911 20.313921 218.162148-239.695064 12.187953 77.392698a83.283675 83.283675 0 0 0 77.596697 70.486725l78.001695 4.062984L795.898891 249.015527l22.547912 20.312921 176.927309-193.380245a30.875879 30.875879 0 0 0-20.313921-51.595798l-78.001695-4.265983a52.610794 52.610794 0 0 1-48.75181-44.485827l-11.577954-77.189698a30.67288 30.67288 0 0 0-24.172906-24.984903 28.641888 28.641888 0 0 0-8.328968-1.421994zM516.186984 107.027082A394.480459 394.480459 0 1 0 910.668443 501.304542a394.887457 394.887457 0 0 0-394.481459-394.27846z m0 758.288038A364.011578 364.011578 0 1 1 880.198562 501.304542 364.214577 364.214577 0 0 1 516.186984 865.31512zM516.186984 289.845368a211.663173 211.663173 0 1 0 211.663173 211.459174 211.663173 211.663173 0 0 0-211.663173-211.459174z m0 392.652466a181.193292 181.193292 0 1 1 181.193292-181.193292 181.396291 181.396291 0 0 1-181.193292 181.193292z"  horiz-adv-x="1024" />

    
    <glyph glyph-name="jinzhanzhongxin" unicode="&#58994;" d="M511.965148 403.493632c243.061112 0 440.094782 184.175376 440.094782 411.360432-1.036536 0-879.638494-0.065604-880.202684 0 0-227.198177 197.04679-411.360432 440.107902-411.360432zM893.65966 787.090646l-1.312071-8.620305c-30.361318-180.409733-189.003796-318.09844-380.382441-318.09844l-13.002621 0.209931c-185.513688 6.074888-337.713899 141.572437-367.379819 317.888509l-1.312071 8.567822z m58.40027 108.901875L77.643478 895.769469c0.262414 0 0.74788-0.144328 1.312071-0.236173A54.450937 54.450937 0 0 1 17.393188 841.554704c0-270.745806 221.543152-490.005954 494.545719-490.005954S1006.510868 570.743295 1006.510868 841.489101A54.437817 54.437817 0 0 1 952.05993 895.900676zM511.965148 307.6075c243.061112 0 440.094782-184.175376 440.094782-411.360432H71.857246c0 227.185056 197.04679 411.360432 440.107902 411.360432zM126.308183 106.480169h793.251754v-163.339691H126.308183zM893.65966-19.098125l-1.312071 8.607184C861.986271 169.918792 703.343793 307.6075 511.965148 307.6075l-13.002621-0.209932c-185.513688-6.074888-337.713899-141.572437-367.379819-317.888509l-1.312071-8.607184z m58.40027-108.901875H71.857246a54.450937 54.450937 0 0 0-54.450937 54.450937c0 270.745806 221.543152 490.005954 494.545719 490.005955s494.55884-219.207666 494.55884-489.966592a54.450937 54.450937 0 0 0-54.437817-54.437817zM690.157481 683.856917a54.450937 54.450937 0 0 0 82.503011-71.074874c-66.430144-77.1104-155.598474-116.170747-263.253882-116.170747s-196.810617 39.060347-263.253881 116.170747a54.450937 54.450937 0 0 0 82.50301 71.074874c45.292683-52.574676 104.139058-78.356867 180.763992-78.356867s135.445067 25.782191 180.73775 78.356867z"  horiz-adv-x="1024" />

    
    <glyph glyph-name="chengguozhanshi3" unicode="&#59237;" d="M640 896c52.128 0 98.592-24.96 127.872-63.968L896 832a64 64 0 0 0 63.84-59.2L960 768v-832a64 64 0 0 0-59.2-63.84L896-128H128a64 64 0 0 0-63.84 59.2L64-64V768a64 64 0 0 0 59.2 63.84L128 832 256 832.064A159.776 159.776 0 0 0 375.776 895.808L384 896h256z m156.704-127.936c1.088-5.376 1.92-10.88 2.496-16.448l0.64-8.448 0.96-39.168H224V736c0 10.976 1.12 21.696 3.2 32.032L128 768v-832h768V768l-99.296 0.064zM608 192a32 32 0 0 0 0-64H288a32 32 0 0 0 0 64h320z m128 192a32 32 0 0 0 0-64H288a32 32 0 0 0 0 64h448z m0 192a32 32 0 0 0 0-64H288a32 32 0 0 0 0 64h448z m-96 256h-256a96 96 0 0 1-88.256-58.144L293.44 768h437.088l-1.856 4.864a96.16 96.16 0 0 1-76.48 58.368l-6.528 0.608L640 832z"  horiz-adv-x="1024" />

    


  </font>
</defs>
</svg>
