<?xml version="1.0" standalone="no"?><!DOCTYPE svg PUBLIC "-//W3C//DTD SVG 1.1//EN" "http://www.w3.org/Graphics/SVG/1.1/DTD/svg11.dtd"><svg t="1584353973666" class="icon" viewBox="0 0 1059 1024" version="1.1" xmlns="http://www.w3.org/2000/svg" p-id="23015" width="49.640625" height="48" xmlns:xlink="http://www.w3.org/1999/xlink"><defs><style type="text/css"></style></defs><path d="M516.467613 0C233.586017 0 4.464488 229.12153 4.464488 512.003125c0 282.875345 229.12153 511.996875 512.003125 511.996875 282.875345 0 511.996875-229.12153 511.996875-511.996875C1028.464488 229.12153 799.342958 0 516.467613 0z m339.199164 344.32167L458.865042 747.520913c-3.838755 3.842505-8.960011 6.401258-14.077517 6.401257-2.563753 0-5.122506 0-7.681259-2.558753l-1.278752-1.285001L209.264738 508.15937c-5.122506-5.116256-5.122506-12.797516 0-16.64002l33.28129-33.276291c5.117506-5.122506 11.518764-5.122506 16.640021 0L448.62503 599.038231l358.399187-302.080369c5.122506-3.837505 12.802516-3.837505 16.640021 0l33.28129 33.281291c2.558753 2.558753 2.558753 10.240013-1.278751 14.082517z m0 0" p-id="23016" fill="#08924a"></path></svg>